Patient4_TMGait_0pt5_01_left_06_GRF.mot
version=1
nRows=78
nColumns=19
inDegrees=no
endheader
time	F1x	F1y	F1z	M1x	M1y	M1z	F2x	F2y	F2z	M2x	M2y	M2z	EC1x	EC1y	EC1z	EC2x	EC2y	EC2z
8	2.2908	8.0775	3.1337	-2.8637	-2.9512	18.2306	-24.4518	716.8626	-68.5095	260.1014	64.3265	556.9752	-0.0592	0.0182	-0.0073	-0.0462	0.0165	0.9585
8.014	1.4692	6.07	2.1405	-2.1782	-2.0823	12.7684	-25.0854	727.8721	-63.663	262.7151	58.8355	562.7911	-0.0592	0.0182	-0.0073	-0.0462	0.0165	0.9585
8.028	0.76438	4.3981	1.3134	-1.6149	-1.3622	8.1628	-25.3895	741.0414	-59.6132	266.3017	54.0609	569.4104	-0.0592	0.0182	-0.0073	-0.0462	0.0165	0.9585
8.042	0.22124	3.1551	0.68831	-1.2011	-0.82285	4.677	-25.3166	755.6382	-56.5252	270.6774	50.2287	576.3641	-0.0592	0.0182	-0.0073	-0.0462	0.0165	0.9585
8.056	-0.16242	2.325	0.26574	-0.92841	-0.46055	2.289	-24.8746	770.6601	-54.3081	275.4937	47.2934	583.0382	-0.0592	0.0182	-0.0073	-0.0462	0.0165	0.9585
8.07	-0.42113	1.8387	0.0077272	-0.76985	-0.23951	0.8358	-24.0732	784.911	-52.7373	280.2891	45.0482	588.686	-0.0592	0.0182	-0.0073	-0.0462	0.0165	0.9585
8.084	-0.58504	1.5949	-0.12099	-0.68848	-0.12794	0.079634	-22.9184	797.1	-51.5875	284.543	43.2575	592.4886	-0.0592	0.0182	-0.0073	-0.0462	0.0165	0.9585
8.098	-0.69477	1.4859	-0.16646	-0.64559	-0.091651	-0.21539	-21.4161	805.9413	-50.6677	287.7268	41.7036	593.626	-0.0592	0.0182	-0.0073	-0.0462	0.0165	0.9585
8.112	-0.78598	1.3902	-0.16012	-0.60104	-0.10769	-0.28348	-19.5751	810.3121	-49.8529	289.3728	40.2251	591.3885	-0.0592	0.0182	-0.0073	-0.0462	0.0165	0.9585
8.126	-0.88258	1.1884	-0.12346	-0.51357	-0.16292	-0.32888	-17.4277	809.4486	-49.07	289.1552	38.7186	585.3229	-0.0592	0.0182	-0.0073	-0.0462	0.0165	0.9585
8.14	-1.006	0.77532	-0.079366	-0.34353	-0.24065	-0.50676	-15.0218	803.1369	-48.2939	286.9666	37.1421	575.3568	-0.0592	0.0182	-0.0073	-0.0462	0.0165	0.9585
8.154	-1.1494	0.05686	-0.039275	-0.055623	-0.32811	-0.94333	-12.4089	791.8514	-47.524	282.9681	35.4886	561.8862	-0.0592	0.0182	-0.0073	-0.0462	0.0165	0.9585
8.168	-1.2892	-1.0294	-0.019406	0.37019	-0.40134	-1.7135	-9.6122	776.7378	-46.7939	277.5793	33.7801	545.7493	-0.0592	0.0182	-0.0073	-0.0462	0.0165	0.9585
8.182	-1.3797	-2.4891	-0.027025	0.92998	-0.43373	-2.8298	-6.6184	759.4597	-46.1621	271.4186	32.0548	528.1163	-0.0592	0.0182	-0.0073	-0.0462	0.0165	0.9585
8.196	-1.3397	-4.217	-0.074171	1.5805	-0.38163	-4.2045	-3.4145	741.9426	-45.7154	265.2054	30.377	510.3218	-0.0592	0.0182	-0.0073	-0.0462	0.0165	0.9585
8.21	-1.0621	-5.9317	-0.16282	2.2193	-0.20364	-5.593	0.0066615	726.0078	-45.5356	259.6263	28.8145	493.6046	-0.0592	0.0182	-0.0073	-0.0462	0.0165	0.9585
8.224	-0.40478	-7.1334	-0.30113	2.6617	0.15624	-6.5736	3.6428	713.0478	-45.6796	255.2145	27.4198	478.8974	-0.0592	0.0182	-0.0073	-0.0462	0.0165	0.9585
8.238	0.78364	-7.0403	-0.49422	2.6187	0.75548	-6.4869	7.4846	703.8316	-46.1434	252.2751	26.1985	466.7113	-0.0592	0.0182	-0.0073	-0.0462	0.0165	0.9585
8.252	2.6488	-4.5509	-0.74245	1.679	1.6483	-4.4239	11.5287	698.4637	-46.8687	250.8683	25.1224	457.1172	-0.0592	0.0182	-0.0073	-0.0462	0.0165	0.9585
8.266	5.2949	1.7455	-1.0268	-0.68665	2.8558	0.77542	15.7401	696.4647	-47.7215	250.8342	24.1173	449.8267	-0.0592	0.0182	-0.0073	-0.0462	0.0165	0.9585
8.28	8.7019	13.4707	-1.2967	-5.0869	4.3245	10.4549	20.0227	696.8636	-48.5284	251.8188	23.1019	444.2728	-0.0592	0.0182	-0.0073	-0.0462	0.0165	0.9585
8.294	12.6388	32.2227	-1.4707	-12.1213	5.8951	25.9369	24.1942	698.2764	-49.0956	253.2945	22.0092	439.6712	-0.0592	0.0182	-0.0073	-0.0462	0.0165	0.9585
8.308	16.5257	59.1325	-1.4149	-22.2133	7.2364	48.1684	27.9735	699.0107	-49.2661	254.5958	20.8311	435.104	-0.0592	0.0182	-0.0073	-0.0462	0.0165	0.9585
8.322	19.3212	94.1759	-0.94971	-35.3525	7.8116	77.1399	31.0375	697.2167	-48.9282	254.9832	19.6013	429.5857	-0.0592	0.0182	-0.0073	-0.0462	0.0165	0.9585
8.336	19.6293	135.4175	0.15128	-50.8097	6.9169	111.2565	33.0942	691.1771	-48.0146	253.7596	18.3778	422.2215	-0.0592	0.0182	-0.0073	-0.0462	0.0165	0.9585
8.35	16.5841	178.7329	2.1873	-67.025	3.9924	147.103	34.0075	679.7031	-46.4921	250.428	17.1866	412.397	-0.0592	0.0182	-0.0073	-0.0462	0.0165	0.9585
8.364	11.083	219.4112	5.54	-82.2143	-0.95758	180.6919	33.9147	662.4542	-44.3835	244.8235	15.9902	399.9017	-0.0592	0.0182	-0.0073	-0.0462	0.0165	0.9585
8.378	4.5556	255.2258	9.7595	-95.5625	-6.9784	209.9829	33.2089	639.9856	-41.8008	237.1319	14.7034	384.9526	-0.0592	0.0182	-0.0073	-0.0462	0.0165	0.9585
8.392	-1.829	286.6964	14.3421	-107.2898	-13.2031	235.2602	32.4003	613.3077	-38.9708	227.7259	13.2684	367.9612	-0.0592	0.0182	-0.0073	-0.0462	0.0165	0.9585
8.406	-7.3454	315.1094	18.7188	-117.9184	-18.8717	257.5841	31.8821	583.3698	-36.1079	216.9701	11.6695	349.3046	-0.0592	0.0182	-0.0073	-0.0462	0.0165	0.9585
8.42	-11.7471	341.3564	22.5223	-127.8148	-23.5968	277.754	31.8293	550.8222	-33.315	205.1279	9.9104	329.2296	-0.0592	0.0182	-0.0073	-0.0462	0.0165	0.9585
8.434	-14.9981	365.7733	25.4199	-137.1256	-27.0938	296.0648	32.2162	516.0634	-30.5965	192.3708	8.0137	307.9	-0.0592	0.0182	-0.0073	-0.0462	0.0165	0.9585
8.448	-17.1709	388.5122	27.3969	-145.8989	-29.389	312.6717	32.8442	479.322	-27.9163	178.8036	6.0398	285.4348	-0.0592	0.0182	-0.0073	-0.0462	0.0165	0.9585
8.462	-18.3648	409.9059	28.572	-154.2358	-30.6108	327.8417	33.4071	440.7193	-25.249	164.4864	4.0938	261.9189	-0.0592	0.0182	-0.0073	-0.0462	0.0165	0.9585
8.476	-18.7676	430.7318	29.3064	-162.3868	-31.113	342.2102	33.5339	400.3739	-22.5856	149.4714	2.3116	237.4653	-0.0592	0.0182	-0.0073	-0.0462	0.0165	0.9585
8.49	-18.6545	452.0886	29.9913	-170.7237	-31.2938	356.6259	32.8533	358.5036	-19.9559	133.8466	0.85033	212.2458	-0.0592	0.0182	-0.0073	-0.0462	0.0165	0.9585
8.504	-18.3265	475.1784	31.0652	-179.6635	-31.6136	371.995	31.084	315.5782	-17.431	117.7957	-0.14361	186.5694	-0.0592	0.0182	-0.0073	-0.0462	0.0165	0.9585
8.518	-17.9957	501.2426	32.7986	-189.6477	-32.3654	389.2545	28.1412	272.4476	-15.1017	101.6463	-0.58532	160.9374	-0.0592	0.0182	-0.0073	-0.0462	0.0165	0.9585
8.532	-17.7196	531.2558	35.2877	-201.0302	-33.6576	409.0963	24.1811	230.2843	-13.0524	85.8461	-0.48184	136.0078	-0.0592	0.0182	-0.0073	-0.0462	0.0165	0.9585
8.546	-17.5251	565.496	38.4471	-213.9126	-35.4466	431.6946	19.5408	190.3454	-11.3086	70.8744	0.05464	112.4709	-0.0592	0.0182	-0.0073	-0.0462	0.0165	0.9585
8.56	-17.4397	603.2769	42.0803	-228.0449	-37.5988	456.5106	14.6493	153.6766	-9.8418	57.132	0.85214	90.8801	-0.0592	0.0182	-0.0073	-0.0462	0.0165	0.9585
8.574	-17.4182	643.0433	45.9649	-242.8528	-39.9417	482.3813	9.895	120.9399	-8.5698	44.8762	1.723	71.5892	-0.0592	0.0182	-0.0073	-0.0462	0.0165	0.9585
8.588	-17.3773	682.6357	49.8364	-257.5392	-42.2484	507.7305	5.5891	92.4055	-7.4024	34.2157	2.5091	54.7535	-0.0592	0.0182	-0.0073	-0.0462	0.0165	0.9585
8.602	-17.1908	719.5974	53.4643	-271.1994	-44.3094	530.7758	1.9728	68.0534	-6.2586	25.1448	3.0774	40.3688	-0.0592	0.0182	-0.0073	-0.0462	0.0165	0.9585
8.616	-16.731	751.5469	56.616	-282.9568	-45.909	549.8388	-0.79038	47.7324	-5.0937	17.6008	3.3424	28.3718	-0.0592	0.0182	-0.0073	-0.0462	0.0165	0.9585
8.63	-15.8909	776.478	59.1464	-292.0715	-46.9096	563.5712	-2.5775	31.2618	-3.9042	11.5083	3.2569	18.6632	-0.0592	0.0182	-0.0073	-0.0462	0.0165	0.9585
8.644	-14.5932	793.0048	60.9737	-298.0323	-47.2273	571.0981	-3.3431	18.4893	-2.7389	6.8021	2.8333	11.1527	-0.0592	0.0182	-0.0073	-0.0462	0.0165	0.9585
8.658	-12.852	800.5446	62.114	-300.6217	-46.8862	572.1588	-3.2772	9.2629	-1.6886	3.4174	2.1882	5.7365	-0.0592	0.0182	-0.0073	-0.0462	0.0165	0.9585
8.672	-10.7325	799.4175	62.621	-299.9565	-45.9602	567.1279	-2.7654	3.2329	-0.8557	1.2164	1.5183	2.2102	-0.0592	0.0182	-0.0073	-0.0462	0.0165	0.9585
8.686	-8.3545	790.8836	62.5873	-296.4996	-44.5723	557.0367	-2.0836	-0.22317	-0.25492	-0.035418	0.92623	0.20907	-0.0592	0.0182	-0.0073	-0.0462	0.0165	0.9585
8.7	-5.8789	776.9982	62.1182	-291.0055	-42.863	543.4517	-1.403	-1.8021	0.13218	-0.59825	0.46422	-0.686	-0.0592	0.0182	-0.0073	-0.0462	0.0165	0.9585
8.714	-3.4777	760.2395	61.3659	-284.3845	-41.0091	528.1938	-0.82119	-2.1388	0.35541	-0.70689	0.13366	-0.85156	-0.0592	0.0182	-0.0073	-0.0462	0.0165	0.9585
8.728	-1.3372	743.1542	60.4885	-277.5747	-39.1922	513.1021	-0.37305	-1.7494	0.45243	-0.55253	-0.072811	-0.59647	-0.0592	0.0182	-0.0073	-0.0462	0.0165	0.9585
8.742	0.40715	728.044	59.618	-271.4266	-37.5591	499.7909	-0.068731	-1.0038	0.48023	-0.27202	-0.19021	-0.132	-0.0592	0.0182	-0.0073	-0.0462	0.0165	0.9585
8.756	1.6798	716.7199	58.8431	-266.6092	-36.198	489.4762	0.10316	-0.16011	0.46024	0.039256	-0.22706	0.39759	-0.0592	0.0182	-0.0073	-0.0462	0.0165	0.9585
8.77	2.474	710.2991	58.2183	-263.535	-35.1422	482.852	0.17008	0.61699	0.42656	0.32183	-0.21792	0.89262	-0.0592	0.0182	-0.0073	-0.0462	0.0165	0.9585
8.784	2.8654	709.1193	57.7971	-262.3296	-34.3962	480.0352	0.15213	1.2226	0.38434	0.53727	-0.17638	1.2848	-0.0592	0.0182	-0.0073	-0.0462	0.0165	0.9585
8.798	2.9711	712.8298	57.6102	-262.8666	-33.932	480.6607	0.076168	1.5811	0.34841	0.65854	-0.13022	1.5101	-0.0592	0.0182	-0.0073	-0.0462	0.0165	0.9585
8.812	2.9525	720.5566	57.6794	-264.8276	-33.7037	483.9988	-0.038732	1.6379	0.31752	0.66486	-0.087185	1.5134	-0.0592	0.0182	-0.0073	-0.0462	0.0165	0.9585
8.826	2.9919	731.0674	57.9907	-267.7642	-33.6316	489.0844	-0.17671	1.3457	0.29441	0.53687	-0.051138	1.2451	-0.0592	0.0182	-0.0073	-0.0462	0.0165	0.9585
8.84	3.2559	742.9282	58.5154	-271.1533	-33.6371	494.8433	-0.31831	0.65857	0.27976	0.25588	-0.024954	0.65893	-0.0592	0.0182	-0.0073	-0.0462	0.0165	0.9585
8.854	3.9	754.6569	59.202	-274.4569	-33.6274	500.1947	-0.43896	-0.45722	0.26653	-0.19193	-0.0079072	-0.2753	-0.0592	0.0182	-0.0073	-0.0462	0.0165	0.9585
8.868	5.0367	764.9187	59.9976	-277.195	-33.5228	504.2103	-0.49765	-2.0018	0.25283	-0.8061	-0.0097033	-1.5632	-0.0592	0.0182	-0.0073	-0.0462	0.0165	0.9585
8.882	6.7307	772.6774	60.8488	-278.9966	-33.2583	506.2021	-0.44157	-3.9002	0.23053	-1.5567	-0.040756	-3.1392	-0.0592	0.0182	-0.0073	-0.0462	0.0165	0.9585
8.896	8.9857	777.2603	61.7169	-279.6249	-32.8046	505.7681	-0.19506	-5.9347	0.20395	-2.358	-0.13093	-4.8174	-0.0592	0.0182	-0.0073	-0.0462	0.0165	0.9585
8.91	11.7298	778.355	62.5557	-278.9769	-32.1537	502.7945	0.34002	-7.6813	0.17133	-3.0443	-0.31789	-6.2447	-0.0592	0.0182	-0.0073	-0.0462	0.0165	0.9585
8.924	14.8546	775.9522	63.3132	-277.0653	-31.3128	497.38	1.2635	-8.4408	0.14404	-3.3427	-0.65247	-6.8436	-0.0592	0.0182	-0.0073	-0.0462	0.0165	0.9585
8.938	18.2356	770.3152	63.9314	-274.0044	-30.2922	489.8099	2.6627	-7.1852	0.12192	-2.8456	-1.1632	-5.7758	-0.0592	0.0182	-0.0073	-0.0462	0.0165	0.9585
8.952	21.7713	761.9255	64.3711	-269.9862	-29.1079	480.4932	4.57	-2.539	0.10987	-1.0017	-1.859	-1.9287	-0.0592	0.0182	-0.0073	-0.0462	0.0165	0.9585
8.966	25.3991	751.4092	64.6148	-265.2516	-27.775	469.9031	6.9045	7.1696	0.10559	2.8617	-2.7041	6.0428	-0.0592	0.0182	-0.0073	-0.0462	0.0165	0.9585
8.98	29.0722	739.3917	64.6414	-260.0404	-26.2995	458.4977	9.4181	23.7283	0.10826	9.4671	-3.6008	19.5637	-0.0592	0.0182	-0.0073	-0.0462	0.0165	0.9585
8.994	32.7496	726.2764	64.3972	-254.5147	-24.6645	446.5732	11.6017	48.6767	0.11119	19.4406	-4.3461	39.8647	-0.0592	0.0182	-0.0073	-0.0462	0.0165	0.9585
9.008	36.3588	712.0538	63.7783	-248.6941	-22.8355	434.1758	12.5942	82.6788	0.10622	33.0647	-4.6012	67.4805	-0.0592	0.0182	-0.0073	-0.0462	0.0165	0.9585
9.022	39.7885	696.2124	62.6432	-242.4234	-20.7742	421.0559	11.1793	124.6661	0.071645	49.9355	-3.8813	101.5421	-0.0592	0.0182	-0.0073	-0.0462	0.0165	0.9585
9.036	42.8842	677.8489	60.8523	-235.408	-18.4644	406.7346	6.6216	171.4564	-0.081217	68.777	-1.8283	139.5118	-0.0592	0.0182	-0.0073	-0.0462	0.0165	0.9585
9.05	45.4483	656.0165	58.3188	-227.3301	-15.9369	390.706	-0.33393	217.8833	-0.64998	87.4931	1.4941	177.2171	-0.0592	0.0182	-0.0073	-0.0462	0.0165	0.9585
9.064	47.3136	630.1375	55.0904	-217.9892	-13.2931	372.6628	-7.9122	258.422	-1.7656	103.8582	5.4724	210.0641	-0.0592	0.0182	-0.0073	-0.0462	0.0165	0.9585
9.078	48.4015	600.3017	51.338	-207.4037	-10.6671	352.6744	-14.7581	290.2947	-3.351	116.7439	9.5033	235.6885	-0.0592	0.0182	-0.0073	-0.0462	0.0165	0.9585
